<svg xmlns="http://www.w3.org/2000/svg" width="1440" height="960" viewBox="0 0 1440 960" role="img" aria-labelledby="title desc">
  <title id="title">ポケふた写真館 UI mockup SVG</title>
  <desc id="desc">Web実装の素材に切り出しやすい、デスクトップとモバイルのポケふた写真館リニューアル案。</desc>
  <defs>
    <linearGradient id="bgGrad" x1="0" y1="0" x2="1" y2="1"><stop offset="0%" stop-color="#FFF8EB"/><stop offset="100%" stop-color="#F6EEDC"/></linearGradient>
    <linearGradient id="photoOverlay" x1="0" y1="0" x2="0" y2="1"><stop offset="0%" stop-color="#000" stop-opacity="0"/><stop offset="70%" stop-color="#000" stop-opacity=".18"/><stop offset="100%" stop-color="#000" stop-opacity=".72"/></linearGradient>
    <linearGradient id="blue" x1="0" y1="0" x2="1" y2="1"><stop stop-color="#37A9D6"/><stop offset="1" stop-color="#245E83"/></linearGradient>
    <linearGradient id="yellow" x1="0" y1="0" x2="1" y2="1"><stop stop-color="#F8C85C"/><stop offset="1" stop-color="#D46C2F"/></linearGradient>
    <linearGradient id="green" x1="0" y1="0" x2="1" y2="1"><stop stop-color="#8FCB82"/><stop offset="1" stop-color="#2D846C"/></linearGradient>
    <linearGradient id="pink" x1="0" y1="0" x2="1" y2="1"><stop stop-color="#ED96B1"/><stop offset="1" stop-color="#A84B78"/></linearGradient>
    <filter id="shadow" x="-20%" y="-20%" width="140%" height="140%"><feDropShadow dx="0" dy="10" stdDeviation="14" flood-color="#2B2B2B" flood-opacity=".14"/></filter>
    <filter id="miniShadow" x="-20%" y="-20%" width="140%" height="140%"><feDropShadow dx="0" dy="4" stdDeviation="7" flood-color="#2B2B2B" flood-opacity=".12"/></filter>
    <symbol id="icon-ball" viewBox="0 0 64 64"><circle cx="32" cy="32" r="26" fill="#FFF8EB" stroke="#2B2B2B" stroke-width="4"/><path d="M8 32h48" stroke="#2B2B2B" stroke-width="4"/><path d="M8 32a26 26 0 0 1 48 0H8z" fill="#E95454"/><circle cx="32" cy="32" r="10" fill="#FFF8EB" stroke="#2B2B2B" stroke-width="4"/><circle cx="32" cy="32" r="4" fill="#2B2B2B"/></symbol>
    <symbol id="icon-camera" viewBox="0 0 64 64"><rect x="10" y="18" width="44" height="34" rx="8" fill="none" stroke="currentColor" stroke-width="5"/><path d="M22 18l5-7h10l5 7" fill="none" stroke="currentColor" stroke-width="5" stroke-linecap="round" stroke-linejoin="round"/><circle cx="32" cy="35" r="10" fill="none" stroke="currentColor" stroke-width="5"/></symbol>
    <symbol id="icon-pin" viewBox="0 0 64 64"><path d="M32 58S14 39 14 24a18 18 0 1 1 36 0c0 15-18 34-18 34z" fill="none" stroke="currentColor" stroke-width="5" stroke-linejoin="round"/><circle cx="32" cy="24" r="7" fill="currentColor"/></symbol>
    <symbol id="icon-heart" viewBox="0 0 64 64"><path d="M32 53S10 38 10 23c0-8 6-13 13-13 5 0 8 2 9 6 1-4 5-6 9-6 7 0 13 5 13 13 0 15-22 30-22 30z" fill="none" stroke="currentColor" stroke-width="5" stroke-linejoin="round"/></symbol>
    <symbol id="icon-comment" viewBox="0 0 64 64"><path d="M14 16h36v28H28L16 54V44h-2z" fill="none" stroke="currentColor" stroke-width="5" stroke-linejoin="round"/></symbol>
    <symbol id="icon-bookmark" viewBox="0 0 64 64"><path d="M18 10h28v44L32 44 18 54z" fill="none" stroke="currentColor" stroke-width="5" stroke-linejoin="round"/></symbol>
    <symbol id="icon-search" viewBox="0 0 64 64"><circle cx="28" cy="28" r="16" fill="none" stroke="currentColor" stroke-width="5"/><path d="M41 41l13 13" stroke="currentColor" stroke-width="5" stroke-linecap="round"/></symbol>
    <symbol id="icon-filter" viewBox="0 0 64 64"><path d="M12 18h40M20 32h24M28 46h8" stroke="currentColor" stroke-width="5" stroke-linecap="round"/></symbol>
    <symbol id="icon-menu" viewBox="0 0 64 64"><path d="M14 20h36M14 32h36M14 44h36" stroke="currentColor" stroke-width="5" stroke-linecap="round"/></symbol>
    <symbol id="manhole-placeholder" viewBox="0 0 200 200"><circle cx="100" cy="100" r="82" fill="url(#blue)" stroke="#2B2B2B" stroke-width="8"/><circle cx="100" cy="100" r="62" fill="none" stroke="#FFF8EB" stroke-width="6" stroke-opacity=".9"/><path d="M44 118c36-48 72 24 112-22" fill="none" stroke="#FFF8EB" stroke-width="9" stroke-linecap="round" opacity=".9"/><circle cx="118" cy="76" r="18" fill="#F6C05A" stroke="#2B2B2B" stroke-width="5"/><path d="M76 70l16 28-32-8 34 22" fill="none" stroke="#2B2B2B" stroke-width="7" stroke-linecap="round" stroke-linejoin="round"/></symbol>
  </defs>
  <rect width="1440" height="960" fill="#F6EEDC"/>
  <g id="desktop-mockup" transform="translate(32,24)">
    <rect width="820" height="890" rx="28" fill="url(#bgGrad)" stroke="#E2CFAE" stroke-width="2" filter="url(#shadow)"/>
    <g id="desktop-header"><rect width="820" height="76" rx="28" fill="#FFF8EB"/><line x1="0" y1="76" x2="820" y2="76" stroke="#E2CFAE"/><use href="#icon-ball" x="36" y="22" width="34" height="34"/><text x="82" y="49" font-size="24" font-weight="800" fill="#1F1F1F" font-family="sans-serif">ポケふた写真館</text><use href="#icon-search" x="548" y="23" width="32" height="32" color="#1F1F1F"/><use href="#icon-filter" x="610" y="23" width="32" height="32" color="#1F1F1F"/><rect x="680" y="18" width="112" height="42" rx="12" fill="#7B63A8"/><use href="#icon-camera" x="694" y="27" width="24" height="24" color="#FFF"/><text x="728" y="45" font-size="16" font-weight="700" fill="#FFF" font-family="sans-serif">写真を投稿</text></g>
    <g id="desktop-hero" transform="translate(48,116)"><text x="0" y="36" font-size="36" font-weight="900" fill="#1F1F1F" font-family="sans-serif">旅先で見つけた</text><text x="0" y="86" font-size="36" font-weight="900" fill="#1F1F1F" font-family="sans-serif">ポケふたを記録しよう</text><text x="0" y="136" font-size="18" fill="#2B2B2B" font-family="sans-serif">旅行やお出かけで出会ったポケふた写真を</text><text x="0" y="166" font-size="18" fill="#2B2B2B" font-family="sans-serif">みんなでシェアしよう！</text><g id="polaroid" transform="translate(500,0) rotate(8)"><rect width="160" height="172" rx="10" fill="#FFF" stroke="#E2CFAE" filter="url(#miniShadow)"/><rect x="14" y="14" width="132" height="112" rx="6" fill="url(#yellow)"/><use href="#manhole-placeholder" x="30" y="20" width="100" height="100"/><rect x="112" y="-14" width="52" height="18" rx="3" fill="#7B63A8" opacity=".85" transform="rotate(-10 112 -14)"/></g><g id="stats" transform="translate(0,220)"><rect width="286" height="74" rx="14" fill="#FFF8EB" stroke="#E2CFAE" filter="url(#miniShadow)"/><use href="#icon-pin" x="24" y="19" width="36" height="36" color="#7B63A8"/><text x="84" y="33" font-size="19" font-weight="800" fill="#1F1F1F" font-family="sans-serif">全国387自治体</text><text x="84" y="58" font-size="14" fill="#5B5146" font-family="sans-serif">に設置</text><rect x="310" width="286" height="74" rx="14" fill="#FFF8EB" stroke="#E2CFAE" filter="url(#miniShadow)"/><use href="#icon-ball" x="334" y="19" width="36" height="36"/><text x="394" y="33" font-size="19" font-weight="800" fill="#1F1F1F" font-family="sans-serif">470枚以上</text><text x="394" y="58" font-size="14" fill="#5B5146" font-family="sans-serif">のポケふたを掲載</text></g></g>
    <g id="desktop-tabs" transform="translate(48,454)"><rect width="140" height="50" rx="13" fill="#7B63A8"/><text x="70" y="32" text-anchor="middle" font-size="17" font-weight="700" fill="#FFF" font-family="sans-serif">最新</text><rect x="154" width="140" height="50" rx="13" fill="#FFF8EB" stroke="#E2CFAE"/><text x="224" y="32" text-anchor="middle" font-size="17" font-weight="700" fill="#1F1F1F" font-family="sans-serif">投稿</text><rect x="308" width="160" height="50" rx="13" fill="#FFF8EB" stroke="#E2CFAE"/><text x="388" y="32" text-anchor="middle" font-size="17" font-weight="700" fill="#1F1F1F" font-family="sans-serif">写真</text><rect x="482" width="220" height="50" rx="13" fill="#FFF8EB" stroke="#E2CFAE"/><text x="592" y="32" text-anchor="middle" font-size="17" font-weight="700" fill="#1F1F1F" font-family="sans-serif">ポケふたを探す</text></g>
    <g id="desktop-cards" transform="translate(48,536)">
      <g id="photo-card-1"><rect width="242" height="286" rx="12" fill="url(#blue)" filter="url(#miniShadow)"/><use href="#manhole-placeholder" x="22" y="20" width="198" height="198"/><rect width="242" height="286" rx="12" fill="url(#photoOverlay)"/><rect x="14" y="14" width="58" height="28" rx="8" fill="#7B63A8"/><text x="43" y="34" text-anchor="middle" font-size="16" font-weight="800" fill="#FFF" font-family="sans-serif">NEW</text><text x="18" y="224" font-size="18" font-weight="800" fill="#FFF" font-family="sans-serif">愛知県 刈谷市</text><text x="18" y="250" font-size="16" fill="#FFF" font-family="sans-serif">2025/8/16</text><use href="#icon-heart" x="18" y="258" width="24" height="24" color="#FFF"/><text x="48" y="276" font-size="15" fill="#FFF" font-family="sans-serif">12</text><use href="#icon-comment" x="86" y="258" width="24" height="24" color="#FFF"/><text x="116" y="276" font-size="15" fill="#FFF" font-family="sans-serif">3</text></g>
      <g id="photo-card-2" transform="translate(266,0)"><rect width="242" height="286" rx="12" fill="url(#yellow)" filter="url(#miniShadow)"/><use href="#manhole-placeholder" x="22" y="20" width="198" height="198"/><rect width="242" height="286" rx="12" fill="url(#photoOverlay)"/><rect x="14" y="14" width="58" height="28" rx="8" fill="#7B63A8"/><text x="43" y="34" text-anchor="middle" font-size="16" font-weight="800" fill="#FFF" font-family="sans-serif">NEW</text><text x="18" y="224" font-size="18" font-weight="800" fill="#FFF" font-family="sans-serif">愛知県 名古屋市中区</text><text x="18" y="250" font-size="16" fill="#FFF" font-family="sans-serif">2025/6/4</text><use href="#icon-heart" x="18" y="258" width="24" height="24" color="#FFF"/><text x="48" y="276" font-size="15" fill="#FFF" font-family="sans-serif">8</text><use href="#icon-comment" x="86" y="258" width="24" height="24" color="#FFF"/><text x="116" y="276" font-size="15" fill="#FFF" font-family="sans-serif">2</text></g>
      <g id="photo-card-3" transform="translate(532,0)"><rect width="242" height="286" rx="12" fill="url(#green)" filter="url(#miniShadow)"/><use href="#manhole-placeholder" x="22" y="20" width="198" height="198"/><rect width="242" height="286" rx="12" fill="url(#photoOverlay)"/><rect x="14" y="14" width="58" height="28" rx="8" fill="#7B63A8"/><text x="43" y="34" text-anchor="middle" font-size="16" font-weight="800" fill="#FFF" font-family="sans-serif">NEW</text><text x="18" y="224" font-size="18" font-weight="800" fill="#FFF" font-family="sans-serif">岐阜県 各務原市</text><text x="18" y="250" font-size="16" fill="#FFF" font-family="sans-serif">2025/5/10</text><use href="#icon-heart" x="18" y="258" width="24" height="24" color="#FFF"/><text x="48" y="276" font-size="15" fill="#FFF" font-family="sans-serif">15</text><use href="#icon-comment" x="86" y="258" width="24" height="24" color="#FFF"/><text x="116" y="276" font-size="15" fill="#FFF" font-family="sans-serif">2</text></g>
    </g>
    <g id="desktop-floating-cta" transform="translate(714,800)"><circle cx="38" cy="38" r="38" fill="#7B63A8" filter="url(#miniShadow)"/><use href="#icon-camera" x="23" y="18" width="30" height="30" color="#FFF"/><text x="38" y="61" text-anchor="middle" font-size="12" font-weight="700" fill="#FFF" font-family="sans-serif">投稿</text></g>
  </g>
  <g id="mobile-mockup" transform="translate(900,34)"><rect width="350" height="820" rx="44" fill="#111"/><rect x="12" y="12" width="326" height="796" rx="36" fill="url(#bgGrad)"/><text x="38" y="48" font-size="18" font-weight="800" fill="#111" font-family="sans-serif">9:41</text><g transform="translate(30,82)"><use href="#icon-ball" width="26" height="26"/><text x="36" y="21" font-size="18" font-weight="800" fill="#1F1F1F" font-family="sans-serif">ポケふた写真館</text><use href="#icon-menu" x="260" y="-2" width="28" height="28" color="#1F1F1F"/></g><line x1="12" y1="124" x2="338" y2="124" stroke="#E2CFAE"/><g id="mobile-hero" transform="translate(34,158)"><text x="0" y="34" font-size="25" font-weight="900" fill="#1F1F1F" font-family="sans-serif">旅先で見つけた</text><text x="0" y="72" font-size="25" font-weight="900" fill="#1F1F1F" font-family="sans-serif">ポケふたを記録しよう</text><text x="0" y="114" font-size="14" fill="#2B2B2B" font-family="sans-serif">旅行やお出かけで出会った写真を</text><text x="0" y="138" font-size="14" fill="#2B2B2B" font-family="sans-serif">みんなでシェアしよう！</text></g><g id="mobile-stats" transform="translate(34,324)"><rect width="136" height="58" rx="12" fill="#FFF8EB" stroke="#E2CFAE"/><use href="#icon-pin" x="14" y="15" width="28" height="28" color="#E95454"/><text x="52" y="26" font-size="12" font-weight="800" fill="#1F1F1F" font-family="sans-serif">全国387自治体</text><text x="52" y="44" font-size="11" fill="#5B5146" font-family="sans-serif">に設置</text><rect x="148" width="136" height="58" rx="12" fill="#FFF8EB" stroke="#E2CFAE"/><use href="#icon-ball" x="162" y="15" width="28" height="28"/><text x="200" y="26" font-size="12" font-weight="800" fill="#1F1F1F" font-family="sans-serif">470枚以上</text><text x="200" y="44" font-size="11" fill="#5B5146" font-family="sans-serif">掲載</text></g><g id="mobile-tabs" transform="translate(34,402)"><rect width="68" height="62" rx="12" fill="#7B63A8"/><text x="34" y="48" text-anchor="middle" font-size="12" font-weight="700" fill="#FFF" font-family="sans-serif">最新</text><rect x="74" width="68" height="62" rx="12" fill="#FFF8EB" stroke="#E2CFAE"/><text x="108" y="48" text-anchor="middle" font-size="12" font-weight="700" fill="#111" font-family="sans-serif">投稿</text><rect x="148" width="68" height="62" rx="12" fill="#FFF8EB" stroke="#E2CFAE"/><use href="#icon-bookmark" x="169" y="10" width="28" height="28" color="#111"/><text x="182" y="48" text-anchor="middle" font-size="12" font-weight="700" fill="#111" font-family="sans-serif">写真</text><rect x="222" width="68" height="62" rx="12" fill="#FFF8EB" stroke="#E2CFAE"/><use href="#icon-pin" x="242" y="10" width="28" height="28" color="#111"/><text x="256" y="48" text-anchor="middle" font-size="12" font-weight="700" fill="#111" font-family="sans-serif">探す</text></g><g id="mobile-photo-cards" transform="translate(34,492)"><g><rect width="136" height="172" rx="10" fill="url(#blue)"/><use href="#manhole-placeholder" x="10" y="10" width="116" height="116"/><rect width="136" height="172" rx="10" fill="url(#photoOverlay)"/><rect x="8" y="8" width="44" height="22" rx="7" fill="#7B63A8"/><text x="30" y="24" text-anchor="middle" font-size="12" font-weight="800" fill="#FFF" font-family="sans-serif">NEW</text><text x="10" y="124" font-size="13" font-weight="800" fill="#FFF" font-family="sans-serif">愛知県 刈谷市</text><text x="10" y="145" font-size="12" fill="#FFF" font-family="sans-serif">2025/8/16</text></g><g transform="translate(150,0)"><rect width="136" height="172" rx="10" fill="url(#yellow)"/><use href="#manhole-placeholder" x="10" y="10" width="116" height="116"/><rect width="136" height="172" rx="10" fill="url(#photoOverlay)"/><rect x="8" y="8" width="44" height="22" rx="7" fill="#7B63A8"/><text x="30" y="24" text-anchor="middle" font-size="12" font-weight="800" fill="#FFF" font-family="sans-serif">NEW</text><text x="10" y="124" font-size="13" font-weight="800" fill="#FFF" font-family="sans-serif">愛知県 名古屋</text><text x="10" y="145" font-size="12" fill="#FFF" font-family="sans-serif">2025/6/4</text></g><g transform="translate(0,188)"><rect width="136" height="172" rx="10" fill="url(#green)"/><use href="#manhole-placeholder" x="10" y="10" width="116" height="116"/><rect width="136" height="172" rx="10" fill="url(#photoOverlay)"/><text x="10" y="124" font-size="13" font-weight="800" fill="#FFF" font-family="sans-serif">岐阜県 各務原</text><text x="10" y="145" font-size="12" fill="#FFF" font-family="sans-serif">2025/5/10</text></g><g transform="translate(150,188)"><rect width="136" height="172" rx="10" fill="url(#pink)"/><use href="#manhole-placeholder" x="10" y="10" width="116" height="116"/><rect width="136" height="172" rx="10" fill="url(#photoOverlay)"/><text x="10" y="124" font-size="13" font-weight="800" fill="#FFF" font-family="sans-serif">三重県 いなべ</text><text x="10" y="145" font-size="12" fill="#FFF" font-family="sans-serif">2025/10/26</text></g></g><g id="mobile-bottom-cta" transform="translate(34,746)"><rect width="286" height="48" rx="14" fill="#7B63A8"/><use href="#icon-camera" x="82" y="13" width="24" height="24" color="#FFF"/><text x="155" y="31" text-anchor="middle" font-size="17" font-weight="800" fill="#FFF" font-family="sans-serif">写真を投稿</text></g></g>
  <g id="asset-guide" transform="translate(1270,50)" font-family="sans-serif"><text font-size="20" font-weight="900" fill="#1F1F1F">切り出し単位</text><text y="44" font-size="14" fill="#2B2B2B">#desktop-header</text><text y="72" font-size="14" fill="#2B2B2B">#desktop-hero</text><text y="100" font-size="14" fill="#2B2B2B">#desktop-tabs</text><text y="128" font-size="14" fill="#2B2B2B">#desktop-cards</text><text y="156" font-size="14" fill="#2B2B2B">#mobile-mockup</text><text y="184" font-size="14" fill="#2B2B2B">#mobile-photo-cards</text><rect y="232" width="118" height="38" rx="10" fill="#7B63A8"/><text x="59" y="257" text-anchor="middle" font-size="15" font-weight="800" fill="#FFF">#7B63A8</text><rect y="286" width="118" height="38" rx="10" fill="#FFF8EB" stroke="#E2CFAE"/><text x="59" y="311" text-anchor="middle" font-size="15" font-weight="800" fill="#1F1F1F">#FFF8EB</text><rect y="340" width="118" height="38" rx="10" fill="#F6EEDC" stroke="#E2CFAE"/><text x="59" y="365" text-anchor="middle" font-size="15" font-weight="800" fill="#1F1F1F">#F6EEDC</text></g>
</svg>
