<svg width="1200" height="630" viewBox="0 0 1200 630" xmlns="http://www.w3.org/2000/svg">
  <defs>
    <filter id="shadow" x="-20%" y="-20%" width="140%" height="140%">
      <feDropShadow dx="0" dy="14" stdDeviation="14" flood-color="#000000" flood-opacity="0.24"/>
    </filter>
    <clipPath id="photoClip">
      <rect x="54" y="48" width="410" height="410" rx="36"/>
    </clipPath>
  </defs>

  <image href="./pokefuta_ogp_background_1200x630.png" x="0" y="0" width="1200" height="630" preserveAspectRatio="xMidYMid slice"/>

  <g filter="url(#shadow)">
    <rect x="42" y="36" width="434" height="434" rx="48" fill="#F9F1DC"/>
    <rect x="54" y="48" width="410" height="410" rx="36" fill="#D8D8D8"/>
    <image href="{{photoDataUri}}" x="54" y="48" width="410" height="410" preserveAspectRatio="xMidYMid slice" clip-path="url(#photoClip)"/>
    <rect x="54" y="48" width="410" height="410" rx="36" fill="none" stroke="#FFFFFF" stroke-width="8"/>
  </g>

  <g filter="url(#shadow)">
    <rect x="70" y="420" width="330" height="54" rx="10" fill="#17614F"/>
    <path d="M400 420 L438 447 L400 474 Z" fill="#17614F"/>
  </g>

  <g transform="translate(535 56) rotate(-3)">
    <rect x="0" y="0" width="205" height="50" rx="8" fill="#17614F"/>
    <rect x="8" y="8" width="189" height="34" rx="5" fill="none" stroke="#F3E0A8" stroke-width="2" stroke-dasharray="8 5"/>
  </g>

  <rect x="520" y="202" width="430" height="18" rx="9" fill="#F2CD45" opacity="0.75"/>

  <g filter="url(#shadow)">
    <rect x="520" y="304" width="475" height="68" rx="34" fill="#FFF9EA"/>
    <rect x="535" y="316" width="445" height="44" rx="22" fill="none" stroke="#B88950" stroke-width="2" stroke-dasharray="9 5"/>
  </g>

  <g filter="url(#shadow)">
    <rect x="900" y="553" width="240" height="50" rx="25" fill="#FFF9EA"/>
    <circle cx="1120" cy="578" r="18" fill="#1C2E28"/>
    <path d="M1115 568 L1115 588 L1130 578 Z" fill="#FFFFFF"/>
  </g>
</svg>
