<svg width="1200" height="630" viewBox="0 0 1200 630" xmlns="http://www.w3.org/2000/svg">
  <defs>
    <style>{{fontFaceCss}}</style>
    <filter id="shadow" x="-20%" y="-20%" width="140%" height="140%">
      <feDropShadow dx="0" dy="14" stdDeviation="14" flood-color="#000000" flood-opacity="0.24"/>
    </filter>
    <filter id="titleShadow" x="-10%" y="-20%" width="120%" height="150%">
      <feDropShadow dx="3" dy="5" stdDeviation="2" flood-color="#FFFFFF" flood-opacity="0.95"/>
      <feDropShadow dx="0" dy="7" stdDeviation="4" flood-color="#000000" flood-opacity="0.25"/>
    </filter>
    <clipPath id="photoClip">
      <rect x="54" y="48" width="410" height="410" rx="36"/>
    </clipPath>
  </defs>

  <image href="./pokefuta_ogp_background_1200x630.png" x="0" y="0" width="1200" height="630" preserveAspectRatio="xMidYMid slice"/>

  <g filter="url(#shadow)">
    <rect x="42" y="36" width="434" height="434" rx="48" fill="#F9F1DC"/>
    <rect x="54" y="48" width="410" height="410" rx="36" fill="#D8D8D8"/>
    <image href="{{photoDataUri}}" x="54" y="48" width="410" height="410" preserveAspectRatio="xMidYMid slice" clip-path="url(#photoClip)"/>
    <rect x="54" y="48" width="410" height="410" rx="36" fill="none" stroke="#FFFFFF" stroke-width="8"/>
  </g>

  <g filter="url(#shadow)">
    <rect x="70" y="420" width="330" height="54" rx="10" fill="#17614F"/>
    <path d="M400 420 L438 447 L400 474 Z" fill="#17614F"/>
    <text x="100" y="456" font-family="'Pokefuta OGP JP', sans-serif" font-size="25" font-weight="900" fill="#FFFFFF">📷 MY POKEFUTA PHOTO</text>
  </g>

  <g transform="translate(535 56) rotate(-3)">
    <rect x="0" y="0" width="205" height="50" rx="8" fill="#17614F"/>
    <rect x="8" y="8" width="189" height="34" rx="5" fill="none" stroke="#F3E0A8" stroke-width="2" stroke-dasharray="8 5"/>
    <text x="102" y="34" text-anchor="middle" font-family="'Pokefuta OGP JP', sans-serif" font-size="24" font-weight="900" fill="#FFFFFF">{{prefecture}}</text>
  </g>

  <text x="520" y="185" font-family="'Pokefuta OGP JP', sans-serif" font-size="64" font-weight="950" fill="#3A2C22" filter="url(#titleShadow)">{{city}}のポケふた</text>
  <rect x="520" y="202" width="430" height="18" rx="9" fill="#F2CD45" opacity="0.75"/>

  <text x="528" y="265" font-family="'Pokefuta OGP JP', sans-serif" font-size="33" font-weight="900" fill="#17614F">{{pokemonNames}}</text>

  <g filter="url(#shadow)">
    <rect x="520" y="304" width="475" height="68" rx="34" fill="#FFF9EA"/>
    <rect x="535" y="316" width="445" height="44" rx="22" fill="none" stroke="#B88950" stroke-width="2" stroke-dasharray="9 5"/>
    <text x="560" y="348" font-family="'Pokefuta OGP JP', sans-serif" font-size="29" font-weight="950" fill="#17614F">{{badgeEmoji}} {{badgeLabel}}</text>
  </g>

  <text x="520" y="440" font-family="'Pokefuta OGP JP', sans-serif" font-size="31" font-weight="900" fill="#2F241C">旅先で見つける、全国のポケふたマップ</text>

  <text x="90" y="585" font-family="'Pokefuta OGP JP', sans-serif" font-size="24" font-weight="900" fill="#FFFFFF">旅行・お出かけ・聖地巡りのお供に！</text>
  <text x="520" y="585" font-family="'Pokefuta OGP JP', sans-serif" font-size="25" font-weight="900" fill="#FFFFFF">{{statsLabel}}</text>

  <g filter="url(#shadow)">
    <rect x="900" y="553" width="240" height="50" rx="25" fill="#FFF9EA"/>
    <text x="1012" y="586" text-anchor="middle" font-family="'Pokefuta OGP JP', sans-serif" font-size="25" font-weight="950" fill="#17614F">pokefuta.com</text>
    <circle cx="1120" cy="578" r="18" fill="#1C2E28"/>
    <path d="M1115 568 L1115 588 L1130 578 Z" fill="#FFFFFF"/>
  </g>
</svg>
